{"title":"Eye of the Needle (1981) Donald Sutherland (Opt.MULTISUBS)","uid":5066586,"size":734051472,"categoryP":"video","categoryS":"movies","magnet":"?xt=urn:btih:1de33aa1435edc91d22ff3ac3110475d78dd7371&amp;dn=Eye+of+the+Needle+%281981%29+Donald+Sutherland+%28Opt.MULTISUBS%29&amp;tr=udp%3A%2F%2Ftracker.openbittorrent.com%3A80&amp;tr=udp%3A%2F%2Fopen.demonii.com%3A1337&amp;tr=udp%3A%2F%2Ftracker.coppersurfer.tk%3A6969&amp;tr=udp%3A%2F%2Fexodus.desync.com%3A6969","seeders":9,"leechers":1,"uploader":"Kuthumi","files":-1,"time":1251042072,"description":" &lt;a href=&quot;http://www.imdb.com/title/tt0082351/&quot; rel=&quot;nofollow&quot; target=&quot;_NEW&quot;&gt;http://www.imdb.com/title/tt0082351/&lt;/a&gt;\n\nOptional subtitles in separate idx/sub files (Work in Windows Media Player etc., see enclosed Note): Danish, Dutch, English for the hearing impaired, Finnish, French, German, Norwegian, Swedish. \n\n(Please note: The original DVD has a small production flaw so that the Scandinavian letter 'ÃƒÂ¥' is only displayed as 'a' in Danish, Norwegian and Swedish. This is a common font error. The subtitles on a DVD are stored as small pictures where the font is burned in, so there is nothing I can do about it. The idx/sub format just extracts these subpictures.)\n\nWorld War 2: A ruthless German spy, trying to get out of Britain with vital information about D-Day, must spend time with a young woman and her crippled husband. \n\nWidescreen DVDrip XviD 2-pass 720x368, original mono sound AC3.\nRuns well in both my standalone DivX players.\n\n\nFormat/Info                      : Audio Video Interleave\nFile size                        : 695 MiB\nDuration                         : 1h 48mn\nOveral bit rate                  : 899 Kbps\n\nVideo\nFormat                           : MPEG-4 Visual\nFormat profile                   : Streaming Video@L1\nFormat settings, BVOP            : Yes\nFormat settings, QPel            : No\nFormat settings, GMC             : No warppoints\nFormat settings, Matrix          : Default\nMuxing mode                      : Packet Bitstream\nCodec ID                         : XVID\nCodec ID/Hint                    : XviD\nDuration                         : 1h 48mn\nBit rate                         : 761 Kbps\nWidth                            : 720 pixels\nHeight                           : 368 pixels\nDisplay aspect ratio             : 1.957\nFrame rate                       : 25.000 fps\nResolution                       : 8 bits\nColorimetry                      : 4:2:0\nScan type                        : Progressive\nBits/(Pixel*Frame)               : 0.115\nStream size                      : 588 MiB\nWriting library                  : XviD 1.2.0.dev47 (UTC 2006-11-01)\n\nAudio\nFormat                           : MPEG Audio\nFormat version                   : Version 1\nFormat profile                   : Layer 3\nCodec ID                         : 55\nCodec ID/Hint                    : MP3\nDuration                         : 1h 48mn\nBit rate mode                    : Constant\nBit rate                         : 128 Kbps\nMinimum bit rate                 : 128 Kbps\nChannel(s)                       : 2 channels\nSampling rate                    : 48.0 KHz\nResolution                       : 16 bits\nStream size                      : 99.0 MiB\nWriting library                  : LAME3.97 \nEncoding settings                : CBR\n\nSource: PAL retail (note that PAL/NTSC will give no problems for avi files).","torrent":{"xt":"urn:btih:1de33aa1435edc91d22ff3ac3110475d78dd7371","amp;dn":"Eye+of+the+Needle+%281981%29+Donald+Sutherland+%28Opt.MULTISUBS%29","amp;tr":["udp%3A%2F%2Ftracker.openbittorrent.com%3A80","udp%3A%2F%2Fopen.demonii.com%3A1337","udp%3A%2F%2Ftracker.coppersurfer.tk%3A6969","udp%3A%2F%2Fexodus.desync.com%3A6969"],"infoHash":"1de33aa1435edc91d22ff3ac3110475d78dd7371","infoHashBuffer":{"type":"Buffer","data":[29,227,58,161,67,94,220,145,210,47,243,172,49,16,71,93,120,221,115,113]},"announce":[],"urlList":[]}}